<?xml version="1.0" encoding="UTF-8" standalone="no"?>
<!DOCTYPE svg PUBLIC "-//W3C//DTD SVG 1.1//EN"
 "http://www.w3.org/Graphics/SVG/1.1/DTD/svg11.dtd">
<!-- Generated by graphviz version 2.43.0 (0)
 -->
<!-- Title: xs3 Pages: 1 -->
<svg width="468pt" height="213pt"
 viewBox="0.00 0.00 468.49 213.00" xmlns="http://www.w3.org/2000/svg" xmlns:xlink="http://www.w3.org/1999/xlink">
<g id="graph0" class="graph" transform="scale(1 1) rotate(0) translate(4 209)">
<title>xs3</title>
<polygon fill="white" stroke="transparent" points="-4,4 -4,-209 464.49,-209 464.49,4 -4,4"/>
<text text-anchor="middle" x="230.25" y="-7.8" font-family="Times,serif" font-size="14.00">xs3</text>
<!-- n3 -->
<g id="node1" class="node">
<title>n3</title>
<polygon fill="none" stroke="black" points="69.25,-141.54 69.25,-156.46 53.43,-167 31.06,-167 15.25,-156.46 15.25,-141.54 31.06,-131 53.43,-131 69.25,-141.54"/>
<text text-anchor="middle" x="42.25" y="-145.3" font-family="Times,serif" font-size="14.00">a</text>
</g>
<!-- c8 -->
<g id="node4" class="node">
<title>c8</title>
<polygon fill="none" stroke="black" points="120.49,-104 120.49,-150 225.49,-150 225.49,-104 120.49,-104"/>
<text text-anchor="middle" x="133.99" y="-134.8" font-family="Times,serif" font-size="14.00">A</text>
<polyline fill="none" stroke="black" points="120.49,-127 147.49,-127 "/>
<text text-anchor="middle" x="133.99" y="-111.8" font-family="Times,serif" font-size="14.00">B</text>
<polyline fill="none" stroke="black" points="147.49,-104 147.49,-150 "/>
<text text-anchor="middle" x="173.49" y="-130.8" font-family="Times,serif" font-size="14.00">$2</text>
<text text-anchor="middle" x="173.49" y="-115.8" font-family="Times,serif" font-size="14.00">$add</text>
<polyline fill="none" stroke="black" points="199.49,-104 199.49,-150 "/>
<text text-anchor="middle" x="212.49" y="-123.3" font-family="Times,serif" font-size="14.00">Y</text>
</g>
<!-- n3&#45;&gt;c8 -->
<g id="edge3" class="edge">
<title>n3:e&#45;&gt;c8:w</title>
<path fill="none" stroke="black" stroke-width="3" d="M70.25,-149C89.1,-149 95.57,-142.14 110.17,-139.78"/>
<polygon fill="black" stroke="black" stroke-width="3" points="110.79,-143.25 120.49,-139 110.26,-136.27 110.79,-143.25"/>
</g>
<!-- c9 -->
<g id="node6" class="node">
<title>c9</title>
<polygon fill="none" stroke="black" points="128.49,-39 128.49,-85 217.49,-85 217.49,-39 128.49,-39"/>
<text text-anchor="middle" x="141.99" y="-69.8" font-family="Times,serif" font-size="14.00">A</text>
<polyline fill="none" stroke="black" points="128.49,-62 155.49,-62 "/>
<text text-anchor="middle" x="141.99" y="-46.8" font-family="Times,serif" font-size="14.00">B</text>
<polyline fill="none" stroke="black" points="155.49,-39 155.49,-85 "/>
<text text-anchor="middle" x="173.49" y="-65.8" font-family="Times,serif" font-size="14.00">$1</text>
<text text-anchor="middle" x="173.49" y="-50.8" font-family="Times,serif" font-size="14.00">$lt</text>
<polyline fill="none" stroke="black" points="191.49,-39 191.49,-85 "/>
<text text-anchor="middle" x="204.49" y="-58.3" font-family="Times,serif" font-size="14.00">Y</text>
</g>
<!-- n3&#45;&gt;c9 -->
<g id="edge4" class="edge">
<title>n3:e&#45;&gt;c9:w</title>
<path fill="none" stroke="black" stroke-width="3" d="M70.25,-149C108.13,-149 89.62,-87.4 116.93,-75.85"/>
<polygon fill="black" stroke="black" stroke-width="3" points="117.79,-79.25 126.99,-74 116.52,-72.37 117.79,-79.25"/>
</g>
<!-- n4 -->
<g id="node2" class="node">
<title>n4</title>
<polygon fill="none" stroke="black" points="460.49,-119.54 460.49,-134.46 444.68,-145 422.31,-145 406.49,-134.46 406.49,-119.54 422.31,-109 444.68,-109 460.49,-119.54"/>
<text text-anchor="middle" x="433.49" y="-123.3" font-family="Times,serif" font-size="14.00">xs</text>
</g>
<!-- v0 -->
<g id="node3" class="node">
<title>v0</title>
<ellipse fill="none" stroke="black" cx="42.25" cy="-95" rx="30.59" ry="18"/>
<text text-anchor="middle" x="42.25" y="-91.3" font-family="Times,serif" font-size="14.00">2&#39;11</text>
</g>
<!-- v0&#45;&gt;c8 -->
<g id="edge6" class="edge">
<title>v0:e&#45;&gt;c8:w</title>
<path fill="none" stroke="black" stroke-width="3" d="M74.25,-95C92.79,-95 96.98,-108.72 110.59,-113.43"/>
<polygon fill="black" stroke="black" stroke-width="3" points="110.07,-116.89 120.49,-115 111.16,-109.98 110.07,-116.89"/>
</g>
<!-- c11 -->
<g id="node8" class="node">
<title>c11</title>
<polygon fill="none" stroke="black" points="261.49,-92.5 261.49,-161.5 370.49,-161.5 370.49,-92.5 261.49,-92.5"/>
<text text-anchor="middle" x="274.99" y="-146.3" font-family="Times,serif" font-size="14.00">A</text>
<polyline fill="none" stroke="black" points="261.49,-138.5 288.49,-138.5 "/>
<text text-anchor="middle" x="274.99" y="-123.3" font-family="Times,serif" font-size="14.00">B</text>
<polyline fill="none" stroke="black" points="261.49,-115.5 288.49,-115.5 "/>
<text text-anchor="middle" x="274.99" y="-100.3" font-family="Times,serif" font-size="14.00">S</text>
<polyline fill="none" stroke="black" points="288.49,-92.5 288.49,-161.5 "/>
<text text-anchor="middle" x="316.49" y="-130.8" font-family="Times,serif" font-size="14.00">$3</text>
<text text-anchor="middle" x="316.49" y="-115.8" font-family="Times,serif" font-size="14.00">$mux</text>
<polyline fill="none" stroke="black" points="344.49,-92.5 344.49,-161.5 "/>
<text text-anchor="middle" x="357.49" y="-123.3" font-family="Times,serif" font-size="14.00">Y</text>
</g>
<!-- c8&#45;&gt;c11 -->
<g id="edge1" class="edge">
<title>c8:e&#45;&gt;c11:w</title>
<path fill="none" stroke="black" stroke-width="3" d="M225.49,-127C237.49,-127 242.74,-127 251.37,-127"/>
<polygon fill="black" stroke="black" stroke-width="3" points="251.49,-130.5 261.49,-127 251.49,-123.5 251.49,-130.5"/>
</g>
<!-- v1 -->
<g id="node5" class="node">
<title>v1</title>
<ellipse fill="none" stroke="black" cx="42.25" cy="-41" rx="42.49" ry="18"/>
<text text-anchor="middle" x="42.25" y="-37.3" font-family="Times,serif" font-size="14.00">4&#39;1101</text>
</g>
<!-- v1&#45;&gt;c9 -->
<g id="edge7" class="edge">
<title>v1:e&#45;&gt;c9:w</title>
<path fill="none" stroke="black" stroke-width="3" d="M84.49,-41C99.88,-41 105.47,-46.72 116.88,-49.04"/>
<polygon fill="black" stroke="black" stroke-width="3" points="116.71,-52.54 126.99,-50 117.37,-45.57 116.71,-52.54"/>
</g>
<!-- c9&#45;&gt;c11 -->
<g id="edge2" class="edge">
<title>c9:e&#45;&gt;c11:w</title>
<path fill="none" stroke="black" d="M218.99,-62C241.4,-62 237.35,-91.9 251.48,-101.24"/>
<polygon fill="black" stroke="black" points="250.92,-104.72 261.49,-104 252.78,-97.97 250.92,-104.72"/>
</g>
<!-- v2 -->
<g id="node7" class="node">
<title>v2</title>
<ellipse fill="none" stroke="black" cx="172.99" cy="-187" rx="27" ry="18"/>
<text text-anchor="middle" x="172.99" y="-183.3" font-family="Times,serif" font-size="14.00">4&#39;x</text>
</g>
<!-- v2&#45;&gt;c11 -->
<g id="edge8" class="edge">
<title>v2:e&#45;&gt;c11:w</title>
<path fill="none" stroke="black" stroke-width="3" d="M200.99,-187C228.69,-187 230.09,-158.42 251.42,-151.5"/>
<polygon fill="black" stroke="black" stroke-width="3" points="252.12,-154.93 261.49,-150 251.09,-148.01 252.12,-154.93"/>
</g>
<!-- c11&#45;&gt;n4 -->
<g id="edge5" class="edge">
<title>c11:e&#45;&gt;n4:w</title>
<path fill="none" stroke="black" stroke-width="3" d="M370.49,-127C382.49,-127 387.74,-127 396.37,-127"/>
<polygon fill="black" stroke="black" stroke-width="3" points="396.49,-130.5 406.49,-127 396.49,-123.5 396.49,-130.5"/>
</g>
</g>
</svg>
